M48
; DRILL file {KiCad 9.0.0} date 2025-07-20T20:25:43-0400
; FORMAT={-:-/ absolute / inch / decimal}
; #@! TF.CreationDate,2025-07-20T20:25:43-04:00
; #@! TF.GenerationSoftware,Kicad,Pcbnew,9.0.0
; #@! TF.FileFunction,Plated,1,4,PTH
FMAT,2
INCH
; #@! TA.AperFunction,Plated,PTH,ViaDrill
T1C0.0118
; #@! TA.AperFunction,Plated,PTH,ComponentDrill
T2C0.0236
; #@! TA.AperFunction,Plated,PTH,ComponentDrill
T3C0.0315
; #@! TA.AperFunction,Plated,PTH,ComponentDrill
T4C0.0394
; #@! TA.AperFunction,Plated,PTH,ComponentDrill
T5C0.0551
%
G90
G05
T1
X2.4724Y-2.4685
X2.4724Y-2.5118
X2.4724Y-2.5551
X2.4764Y-2.6181
X2.4764Y-2.6654
X2.4764Y-2.7126
X2.5039Y-1.0394
X2.5039Y-1.0945
X2.5157Y-2.4685
X2.5394Y-1.0079
X2.5433Y-2.7126
X2.563Y-2.4685
X2.5945Y-2.7126
X2.5984Y-1.0039
X2.6102Y-2.4685
X2.6102Y-2.5079
X2.6102Y-2.5551
X2.6457Y-2.6181
X2.6457Y-2.6654
X2.6457Y-2.7126
X2.6535Y-1.0039
X2.6535Y-2.5079
X2.6535Y-2.5551
X2.6575Y-2.4685
X2.6771Y-1.4332
X2.7008Y-1.0433
X2.7008Y-1.0945
X2.7165Y-1.4252
X2.7165Y-1.4567
X2.7402Y-1.8543
X2.752Y-1.2402
X2.752Y-1.2677
X2.752Y-1.2992
X2.752Y-1.3307
X2.752Y-1.3622
X2.752Y-1.3976
X2.752Y-1.4291
X2.752Y-1.4567
X2.7756Y-2.4134
X2.8071Y-2.0394
X2.811Y-2.7835
X2.815Y-1.6339
X2.815Y-1.752
X2.8359Y-2.0657
X2.9685Y-1.5039
X3.0354Y-1.5827
X3.0551Y-1.4567
X3.1386Y-1.4371
X3.1417Y-1.5276
X3.1417Y-1.5591
X3.1496Y-1.6378
X3.1772Y-2.0079
X3.2047Y-1.5669
X3.2087Y-1.5276
X3.2126Y-1.9803
X3.2126Y-2.0866
X3.2244Y-1.4528
X3.2283Y-1.815
X3.2441Y-1.5748
X3.2441Y-1.6693
X3.2598Y-1.4567
X3.2598Y-1.6417
X3.2756Y-2.0315
X3.2795Y-1.2244
X3.3071Y-1.4488
X3.315Y-1.1811
X3.3209Y-1.9469
X3.3307Y-1.9134
X3.3413Y-2.0952
X3.3622Y-1.4094
X3.3684Y-1.6347
X3.3684Y-1.7451
X3.3701Y-1.378
X3.3701Y-1.5866
X3.3701Y-1.6929
X3.3878Y-1.1358
X3.3937Y-2.0551
X3.4114Y-1.8799
X3.4213Y-1.6339
X3.4213Y-1.6929
X3.4213Y-1.748
X3.4252Y-1.5866
X3.4252Y-2.0118
X3.4291Y-1.9786
X3.4488Y-1.3228
X3.4488Y-1.4173
X3.4567Y-1.8858
X3.4567Y-2.0394
X3.4764Y-1.5866
X3.4764Y-1.6339
X3.4764Y-1.689
X3.4764Y-1.748
X3.4803Y-2.0118
X3.4961Y-1.3307
X3.5197Y-0.9134
X3.5236Y-1.5866
X3.5236Y-1.6339
X3.5236Y-1.6929
X3.5236Y-1.7441
X3.5748Y-1.1811
X3.5984Y-1.4882
X3.6043Y-1.9134
X3.6102Y-1.4331
X3.6535Y-1.0236
X3.6811Y-1.3307
X3.685Y-1.2126
X3.6969Y-1.5394
X3.6969Y-1.6328
X3.7008Y-1.5945
X3.7087Y-0.9843
X3.7152Y-1.0722
X3.7402Y-1.2362
X3.7559Y-1.5039
X3.7717Y-2.9449
X3.7953Y-1.7362
X3.7959Y-1.7953
X3.8526Y-2.0917
X3.8819Y-1.937
X3.9055Y-2.9409
X3.9744Y-2.124
X4.0236Y-2.126
X4.1063Y-2.9409
X4.1417Y-1.5866
X4.1614Y-1.9331
X4.4882Y-1.1417
X4.4882Y-1.2598
X4.4882Y-1.4252
T3
X2.5157Y-1.9567
X2.5157Y-2.1417
X2.5945Y-1.9567
X2.5945Y-2.1417
X2.6732Y-1.9567
X2.6732Y-2.1417
X2.752Y-1.9567
X2.752Y-2.1417
T4
X2.5462Y-2.5406
X2.5462Y-2.6406
X4.4094Y-2.0917
X4.4094Y-2.1917
X4.4094Y-2.4224
X4.4094Y-2.5224
T5
X4.2963Y-1.6378
X4.2963Y-1.8386
X4.3967Y-1.7382
X4.497Y-1.6378
X4.497Y-1.8386
T2
G00X2.5049Y-1.511
M15
G01X2.4734Y-1.511
M16
G05
G00X2.5049Y-1.8512
M15
G01X2.4734Y-1.8512
M16
G05
G00X2.6754Y-1.511
M15
G01X2.6321Y-1.511
M16
G05
G00X2.6754Y-1.8512
M15
G01X2.6321Y-1.8512
M16
G05
M30
